<svg version="1" xmlns="http://www.w3.org/2000/svg" width="800" height="800" viewBox="0 0 600 600"><path d="M161 75.5v9.4l9.3.3 9.2.3.3 151.3.2 151.3-3 1.1c-1.7.6-2.9 1.2-2.7 1.5.2.2 6.2-1.9 13.3-4.7l12.9-5.1-.3-157.5L200 66h-39v9.5zm70 0V85l7.3.1c3.9.1 31.3.4 60.7.8l53.5.6 7.5 2.7c17.4 6.4 31.6 20.5 38.2 38.1l2.3 6.2.3 83.5c.2 79 .2 83.6-1.5 84.9-2.1 1.6-2.7 1.8 13.2-4.4 11-4.3 16.3-6.7 10.8-5.1l-2.2.7-.3-80.3c-.4-90.3.1-84.3-8.2-101.3-8.1-16.4-20.9-29.2-37.1-37-16.9-8.2-13.4-7.9-82.7-8.2l-61.8-.4v9.6zM432 289c-.8.5-1 1-.5 1 .6 0 1.7-.5 2.5-1s1.1-1 .5-1c-.5 0-1.7.5-2.5 1z"/><path d="M427 291c-.8.5-1 1-.5 1 .6 0 1.7-.5 2.5-1s1.1-1 .5-1c-.5 0-1.7.5-2.5 1zm-33 13c-.8.5-1 1-.5 1 .6 0 1.7-.5 2.5-1s1.1-1 .5-1c-.5 0-1.7.5-2.5 1zm-5 2c-.8.5-1 1-.5 1 .6 0 1.7-.5 2.5-1s1.1-1 .5-1c-.5 0-1.7.5-2.5 1zm-5 2c-.8.5-1 1-.5 1 .6 0 1.7-.5 2.5-1s1.1-1 .5-1c-.5 0-1.7.5-2.5 1zm-6.5 2.5c-2.5 1.2-2.6 1.4-.5.9 2.8-.7 6-2.3 4.5-2.3-.5 0-2.3.6-4 1.4zM371 313c-.8.5-1 1-.5 1 .6 0 1.7-.5 2.5-1s1.1-1 .5-1c-.5 0-1.7.5-2.5 1zm-5 2c-.8.5-1 1-.5 1 .6 0 1.7-.5 2.5-1s1.1-1 .5-1c-.5 0-1.7.5-2.5 1zm-5 2c-.8.5-1 1-.5 1 .6 0 1.7-.5 2.5-1s1.1-1 .5-1c-.5 0-1.7.5-2.5 1zm-5 2c-.8.5-1 1-.5 1 .6 0 1.7-.5 2.5-1s1.1-1 .5-1c-.5 0-1.7.5-2.5 1zm-8 3c-.8.5-1 1-.5 1 .6 0 1.7-.5 2.5-1s1.1-1 .5-1c-.5 0-1.7.5-2.5 1zm-5 2c-.8.5-1 1-.5 1 .6 0 1.7-.5 2.5-1s1.1-1 .5-1c-.5 0-1.7.5-2.5 1zm-5 2c-.8.5-1 1-.5 1 .6 0 1.7-.5 2.5-1s1.1-1 .5-1c-.5 0-1.7.5-2.5 1zm-5 2c-.8.5-1 1-.5 1 .6 0 1.7-.5 2.5-1s1.1-1 .5-1c-.5 0-1.7.5-2.5 1zm-5 2c-.8.5-1 1-.5 1 .6 0 1.7-.5 2.5-1s1.1-1 .5-1c-.5 0-1.7.5-2.5 1zm-6.5 2.5c-2.5 1.2-2.6 1.4-.5.9 2.8-.7 6-2.3 4.5-2.3-.5 0-2.3.6-4 1.4zM315 335c-.8.5-1 1-.5 1 .6 0 1.7-.5 2.5-1s1.1-1 .5-1c-.5 0-1.7.5-2.5 1zm-5 2c-.8.5-1 1-.5 1 .6 0 1.7-.5 2.5-1s1.1-1 .5-1c-.5 0-1.7.5-2.5 1zm-5 2c-.8.5-1 1-.5 1 .6 0 1.7-.5 2.5-1s1.1-1 .5-1c-.5 0-1.7.5-2.5 1zm-5 2c-.8.5-1 1-.5 1 .6 0 1.7-.5 2.5-1s1.1-1 .5-1c-.5 0-1.7.5-2.5 1zm-8.5 3.1c-5.4 2.2-7.5 3.6-3.5 2.4 3.7-1.2 10.7-4.4 9.5-4.4-.5 0-3.2.9-6 2zM282 348c-.8.5-1 1-.5 1 .6 0 1.7-.5 2.5-1s1.1-1 .5-1c-.5 0-1.7.5-2.5 1zm-5 2c-.8.5-1 1-.5 1 .6 0 1.7-.5 2.5-1s1.1-1 .5-1c-.5 0-1.7.5-2.5 1zm-5 2c-.8.5-1 1-.5 1 .6 0 1.7-.5 2.5-1s1.1-1 .5-1c-.5 0-1.7.5-2.5 1zm-5 2c-.8.5-1 1-.5 1 .6 0 1.7-.5 2.5-1s1.1-1 .5-1c-.5 0-1.7.5-2.5 1zm-8 3c-.8.5-1 1-.5 1 .6 0 1.7-.5 2.5-1s1.1-1 .5-1c-.5 0-1.7.5-2.5 1zm-5 2c-.8.5-1 1-.5 1 .6 0 1.7-.5 2.5-1s1.1-1 .5-1c-.5 0-1.7.5-2.5 1zm-5 2c-.8.5-1 1-.5 1 .6 0 1.7-.5 2.5-1s1.1-1 .5-1c-.5 0-1.7.5-2.5 1zm-5 2c-.8.5-1 1-.5 1 .6 0 1.7-.5 2.5-1s1.1-1 .5-1c-.5 0-1.7.5-2.5 1zm-8.5 3.1c-5.4 2.2-7.5 3.6-3.5 2.4 3.7-1.2 10.7-4.4 9.5-4.4-.5 0-3.2.9-6 2zM226 370c-.8.5-1 1-.5 1 .6 0 1.7-.5 2.5-1s1.1-1 .5-1c-.5 0-1.7.5-2.5 1zm-5 2c-.8.5-1 1-.5 1 .6 0 1.7-.5 2.5-1s1.1-1 .5-1c-.5 0-1.7.5-2.5 1zm-5 2c-.8.5-1 1-.5 1 .6 0 1.7-.5 2.5-1s1.1-1 .5-1c-.5 0-1.7.5-2.5 1zm-6.5 2.5c-2.5 1.2-2.6 1.4-.5.9 2.8-.7 6-2.3 4.5-2.3-.5 0-2.3.6-4 1.4zM203 379c-.8.5-1 1-.5 1 .6 0 1.7-.5 2.5-1s1.1-1 .5-1c-.5 0-1.7.5-2.5 1zm-33 13c-.8.5-1 1-.5 1 .6 0 1.7-.5 2.5-1s1.1-1 .5-1c-.5 0-1.7.5-2.5 1zm-5 2c-.8.5-1 1-.5 1 .6 0 1.7-.5 2.5-1s1.1-1 .5-1c-.5 0-1.7.5-2.5 1zm15 48.5V463h9.1c9 0 12.3-.9 14.6-3.9 1.6-2.1 1.8-29.4.2-32.3-1.7-3.2-7.1-4.8-15.9-4.8h-8v20.5zm19-16l3 1.6v14.1c0 17.7 0 17.8-11.2 17.8H183v-35h6.5c4 0 7.8.6 9.5 1.5zm25 16c0 13 .4 20.5 1 20.5s1-7.5 1-20.5-.4-20.5-1-20.5-1 7.5-1 20.5zm23.9-17.6l-2.9 2.9V443c0 14.6.1 15.2 2.4 17.5 4.4 4.4 15.7 4.6 20.2.4 2.1-2 2.4-3.1 2.4-10.1V443h-5.5c-4.2 0-5.5.3-5.5 1.5 0 1.1 1.1 1.5 4 1.5h4v5.9c0 7.3-1.9 9.1-9.5 9.1-3 0-6-.6-7.3-1.6-2.1-1.4-2.2-2.2-2.2-16.3 0-17.3.5-18.3 8.7-18.4 6.2-.1 9 .9 9.8 3.4.6 1.9 3.5 2.7 3.5 1 0-4.5-4.8-7.1-13-7.1-5.5 0-6.5.3-9.1 2.9zm41.1 17.6c0 13 .4 20.5 1 20.5s1-7.5 1-20.5-.4-20.5-1-20.5-1 7.5-1 20.5zm20-19c0 1.2 1.3 1.5 5.5 1.5h5.5v19c0 16.2.2 19 1.5 19s1.5-2.8 1.5-19v-19h5.5c4.2 0 5.5-.3 5.5-1.5 0-1.3-2.1-1.5-12.5-1.5s-12.5.2-12.5 1.5zm45.7 0c-1.5.9-3.2 2.7-3.7 4.1-.6 1.4-1 9.9-1 19 0 13.9.2 16.4 1.5 16.4 1.2 0 1.5-1.6 1.5-8v-8h19v8c0 6.4.3 8 1.5 8 1.3 0 1.5-2.6 1.5-17.8 0-17.8 0-17.9-2.5-20.2-3.3-3.1-13.4-3.9-17.8-1.5zm14.8 2.7c2.4 1.1 2.5 1.5 2.5 9.9v8.8l-9.2-.2-9.3-.2-.3-8c-.3-7.2-.1-8.2 1.9-9.8 2.5-2 10.4-2.3 14.4-.5zm24.5 14.2v18.5l2.6 2c2.1 1.7 4.1 2.1 9.6 2.1 5.1 0 6.9-.3 6.6-1.3-.3-.7-3.1-1.4-7.1-1.7-3.6-.3-7.2-1.1-7.9-1.8-.9-.9-1.4-6.1-1.6-18.7-.4-23.6-2.2-22.8-2.2.9zM188.1 493c-4.6 1.1-7.2 4-7.7 8.6-.7 5.7 1.3 8.5 7.6 11.1 10.4 4 11.2 4.5 12.6 7.9 2.6 6.1-1.6 11.4-9.1 11.4-4.4 0-8.5-2.2-8.5-4.6 0-.8-.7-1.4-1.5-1.4-2 0-1.9 2.3.3 4.9 2.3 3 9.2 4.4 14.2 3.1 5.3-1.4 8-5.1 8-10.7 0-5.8-3.5-9.4-11-11.6-7.8-2.3-10-4.1-10-8.1 0-5 2.7-7.7 8.2-8.3 4.1-.5 5-.2 7.3 2.1 4 4 6.1 3.3 3-1.1-1.3-1.8-7.5-4.6-9.5-4.2-.3.1-2 .5-3.9.9zm191.4-.3c-5.2.9-6.7 1.5-8.5 3.3-1.8 1.8-2 3.4-2 16.9 0 8.2.3 15.7.6 16.6 1.1 2.7 6 4.5 12.4 4.5 5.5 0 6.5-.3 9.1-2.9l2.9-2.9v-14.6c0-13.6-.1-14.6-2.3-17.1-2.2-2.7-8-4.4-12.2-3.8zm7.2 3.4c1.5.5 3.1 1.6 3.5 2.2.4.7.8 7.5.8 15.3 0 16.8-.6 17.8-9.3 17.8-9.7 0-9.7-.1-9.7-17.9v-15.4l2.8-1.5c3.2-1.8 8-2 11.9-.5zM219 494c0 .5 2.5 1 5.5 1h5.5v19.5c0 16.5.2 19.5 1.5 19.5 1.2 0 1.5-3.1 1.7-19.3l.3-19.2 5.3-.3c2.8-.2 5.2-.7 5.2-1.3 0-.5-5.3-.9-12.5-.9-7.7 0-12.5.4-12.5 1zm42 16.4c0 9.6.3 18.2.6 19.1 1.1 2.7 6 4.5 12.4 4.5 5.5 0 6.5-.3 9.1-2.9l2.9-2.9v-17.6c0-15-.2-17.6-1.5-17.6s-1.5 2.6-1.5 17.4c0 20.6 0 20.6-9.1 20.6-10.2 0-9.9.7-9.9-20 0-15.3-.2-18-1.5-18s-1.5 2.6-1.5 17.4zm43 3V534h8c8.8 0 14.2-1.6 15.9-4.8.6-1.2 1.1-8 1.1-16.1 0-13.3-.1-14.1-2.4-16.8-2.3-2.7-2.9-2.8-12.5-3.1l-10.1-.4v20.6zm20-15.4c1.8 1.8 2 3.3 2 15.3 0 17 0 17.1-10.9 17.5l-8.1.4V496h7.5c6.2 0 7.9.4 9.5 2zm23 15.5c0 17.6.2 20.5 1.5 20.5s1.5-2.9 1.5-20.5-.2-20.5-1.5-20.5-1.5 2.9-1.5 20.5z"/></svg>