<?xml version="1.0" standalone="no"?>
<!DOCTYPE svg PUBLIC "-//W3C//DTD SVG 20010904//EN"
 "http://www.w3.org/TR/2001/REC-SVG-20010904/DTD/svg10.dtd">
<svg version="1.0" xmlns="http://www.w3.org/2000/svg"
 width="600.000000pt" height="600.000000pt" viewBox="0 0 600.000000 600.000000"
 preserveAspectRatio="xMidYMid meet">
<metadata>
Created by potrace 1.11, written by Peter Selinger 2001-2013
</metadata>
<g transform="translate(0.000000,600.000000) scale(0.100000,-0.100000)"
fill="#000000" stroke="none">
<path d="M1610 5245 l0 -94 93 -3 92 -3 3 -1513 2 -1513 -30 -11 c-17 -6 -29
-12 -27 -15 2 -2 62 19 133 47 l129 51 -3 1575 -2 1574 -195 0 -195 0 0 -95z"/>
<path d="M2310 5245 l0 -95 73 -1 c39 -1 313 -4 607 -8 l535 -6 75 -27 c174
-64 316 -205 382 -381 l23 -62 3 -835 c2 -790 2 -836 -15 -849 -21 -16 -27
-18 132 44 110 43 163 67 108 51 l-22 -7 -3 803 c-4 903 1 843 -82 1013 -81
164 -209 292 -371 370 -169 82 -134 79 -827 82 l-618 4 0 -96z"/>
<path d="M4320 3110 c-8 -5 -10 -10 -5 -10 6 0 17 5 25 10 8 5 11 10 5 10 -5
0 -17 -5 -25 -10z"/>
<path d="M4270 3090 c-8 -5 -10 -10 -5 -10 6 0 17 5 25 10 8 5 11 10 5 10 -5
0 -17 -5 -25 -10z"/>
<path d="M3940 2960 c-8 -5 -10 -10 -5 -10 6 0 17 5 25 10 8 5 11 10 5 10 -5
0 -17 -5 -25 -10z"/>
<path d="M3890 2940 c-8 -5 -10 -10 -5 -10 6 0 17 5 25 10 8 5 11 10 5 10 -5
0 -17 -5 -25 -10z"/>
<path d="M3840 2920 c-8 -5 -10 -10 -5 -10 6 0 17 5 25 10 8 5 11 10 5 10 -5
0 -17 -5 -25 -10z"/>
<path d="M3775 2895 c-25 -12 -26 -14 -5 -9 28 7 60 23 45 23 -5 0 -23 -6 -40
-14z"/>
<path d="M3710 2870 c-8 -5 -10 -10 -5 -10 6 0 17 5 25 10 8 5 11 10 5 10 -5
0 -17 -5 -25 -10z"/>
<path d="M3660 2850 c-8 -5 -10 -10 -5 -10 6 0 17 5 25 10 8 5 11 10 5 10 -5
0 -17 -5 -25 -10z"/>
<path d="M3610 2830 c-8 -5 -10 -10 -5 -10 6 0 17 5 25 10 8 5 11 10 5 10 -5
0 -17 -5 -25 -10z"/>
<path d="M3560 2810 c-8 -5 -10 -10 -5 -10 6 0 17 5 25 10 8 5 11 10 5 10 -5
0 -17 -5 -25 -10z"/>
<path d="M3480 2780 c-8 -5 -10 -10 -5 -10 6 0 17 5 25 10 8 5 11 10 5 10 -5
0 -17 -5 -25 -10z"/>
<path d="M3430 2760 c-8 -5 -10 -10 -5 -10 6 0 17 5 25 10 8 5 11 10 5 10 -5
0 -17 -5 -25 -10z"/>
<path d="M3380 2740 c-8 -5 -10 -10 -5 -10 6 0 17 5 25 10 8 5 11 10 5 10 -5
0 -17 -5 -25 -10z"/>
<path d="M3330 2720 c-8 -5 -10 -10 -5 -10 6 0 17 5 25 10 8 5 11 10 5 10 -5
0 -17 -5 -25 -10z"/>
<path d="M3280 2700 c-8 -5 -10 -10 -5 -10 6 0 17 5 25 10 8 5 11 10 5 10 -5
0 -17 -5 -25 -10z"/>
<path d="M3215 2675 c-25 -12 -26 -14 -5 -9 28 7 60 23 45 23 -5 0 -23 -6 -40
-14z"/>
<path d="M3150 2650 c-8 -5 -10 -10 -5 -10 6 0 17 5 25 10 8 5 11 10 5 10 -5
0 -17 -5 -25 -10z"/>
<path d="M3100 2630 c-8 -5 -10 -10 -5 -10 6 0 17 5 25 10 8 5 11 10 5 10 -5
0 -17 -5 -25 -10z"/>
<path d="M3050 2610 c-8 -5 -10 -10 -5 -10 6 0 17 5 25 10 8 5 11 10 5 10 -5
0 -17 -5 -25 -10z"/>
<path d="M3000 2590 c-8 -5 -10 -10 -5 -10 6 0 17 5 25 10 8 5 11 10 5 10 -5
0 -17 -5 -25 -10z"/>
<path d="M2915 2559 c-54 -22 -75 -36 -35 -24 37 12 107 44 95 44 -5 0 -32 -9
-60 -20z"/>
<path d="M2820 2520 c-8 -5 -10 -10 -5 -10 6 0 17 5 25 10 8 5 11 10 5 10 -5
0 -17 -5 -25 -10z"/>
<path d="M2770 2500 c-8 -5 -10 -10 -5 -10 6 0 17 5 25 10 8 5 11 10 5 10 -5
0 -17 -5 -25 -10z"/>
<path d="M2720 2480 c-8 -5 -10 -10 -5 -10 6 0 17 5 25 10 8 5 11 10 5 10 -5
0 -17 -5 -25 -10z"/>
<path d="M2670 2460 c-8 -5 -10 -10 -5 -10 6 0 17 5 25 10 8 5 11 10 5 10 -5
0 -17 -5 -25 -10z"/>
<path d="M2590 2430 c-8 -5 -10 -10 -5 -10 6 0 17 5 25 10 8 5 11 10 5 10 -5
0 -17 -5 -25 -10z"/>
<path d="M2540 2410 c-8 -5 -10 -10 -5 -10 6 0 17 5 25 10 8 5 11 10 5 10 -5
0 -17 -5 -25 -10z"/>
<path d="M2490 2390 c-8 -5 -10 -10 -5 -10 6 0 17 5 25 10 8 5 11 10 5 10 -5
0 -17 -5 -25 -10z"/>
<path d="M2440 2370 c-8 -5 -10 -10 -5 -10 6 0 17 5 25 10 8 5 11 10 5 10 -5
0 -17 -5 -25 -10z"/>
<path d="M2355 2339 c-54 -22 -75 -36 -35 -24 37 12 107 44 95 44 -5 0 -32 -9
-60 -20z"/>
<path d="M2260 2300 c-8 -5 -10 -10 -5 -10 6 0 17 5 25 10 8 5 11 10 5 10 -5
0 -17 -5 -25 -10z"/>
<path d="M2210 2280 c-8 -5 -10 -10 -5 -10 6 0 17 5 25 10 8 5 11 10 5 10 -5
0 -17 -5 -25 -10z"/>
<path d="M2160 2260 c-8 -5 -10 -10 -5 -10 6 0 17 5 25 10 8 5 11 10 5 10 -5
0 -17 -5 -25 -10z"/>
<path d="M2095 2235 c-25 -12 -26 -14 -5 -9 28 7 60 23 45 23 -5 0 -23 -6 -40
-14z"/>
<path d="M2030 2210 c-8 -5 -10 -10 -5 -10 6 0 17 5 25 10 8 5 11 10 5 10 -5
0 -17 -5 -25 -10z"/>
<path d="M1700 2080 c-8 -5 -10 -10 -5 -10 6 0 17 5 25 10 8 5 11 10 5 10 -5
0 -17 -5 -25 -10z"/>
<path d="M1650 2060 c-8 -5 -10 -10 -5 -10 6 0 17 5 25 10 8 5 11 10 5 10 -5
0 -17 -5 -25 -10z"/>
<path d="M1800 1575 l0 -205 91 0 c90 0 123 9 146 39 16 21 18 294 2 323 -17
32 -71 48 -159 48 l-80 0 0 -205z m190 160 l30 -16 0 -141 c0 -177 0 -178
-112 -178 l-78 0 0 175 0 175 65 0 c40 0 78 -6 95 -15z"/>
<path d="M2240 1575 c0 -130 4 -205 10 -205 6 0 10 75 10 205 0 130 -4 205
-10 205 -6 0 -10 -75 -10 -205z"/>
<path d="M2479 1751 l-29 -29 0 -152 c0 -146 1 -152 24 -175 44 -44 157 -46
202 -4 21 20 24 31 24 101 l0 78 -55 0 c-42 0 -55 -3 -55 -15 0 -11 11 -15 40
-15 l40 0 0 -59 c0 -73 -19 -91 -95 -91 -30 0 -60 6 -73 16 -21 14 -22 22 -22
163 0 173 5 183 87 184 62 1 90 -9 98 -34 6 -19 35 -27 35 -10 0 45 -48 71
-130 71 -55 0 -65 -3 -91 -29z"/>
<path d="M2890 1575 c0 -130 4 -205 10 -205 6 0 10 75 10 205 0 130 -4 205
-10 205 -6 0 -10 -75 -10 -205z"/>
<path d="M3090 1765 c0 -12 13 -15 55 -15 l55 0 0 -190 c0 -162 2 -190 15
-190 13 0 15 28 15 190 l0 190 55 0 c42 0 55 3 55 15 0 13 -21 15 -125 15
-104 0 -125 -2 -125 -15z"/>
<path d="M3547 1765 c-15 -9 -32 -27 -37 -41 -6 -14 -10 -99 -10 -190 0 -139
2 -164 15 -164 12 0 15 16 15 80 l0 80 95 0 95 0 0 -80 c0 -64 3 -80 15 -80
13 0 15 26 15 178 0 178 0 179 -25 202 -33 31 -134 39 -178 15z m148 -27 c24
-11 25 -15 25 -99 l0 -88 -92 2 -93 2 -3 80 c-3 72 -1 82 19 98 25 20 104 23
144 5z"/>
<path d="M3940 1596 l0 -185 26 -20 c21 -17 41 -21 96 -21 51 0 69 3 66 13 -3
7 -31 14 -71 17 -36 3 -72 11 -79 18 -9 9 -14 61 -16 187 -4 236 -22 228 -22
-9z"/>
<path d="M1881 1070 c-46 -11 -72 -40 -77 -86 -7 -57 13 -85 76 -111 104 -40
112 -45 126 -79 26 -61 -16 -114 -91 -114 -44 0 -85 22 -85 46 0 8 -7 14 -15
14 -20 0 -19 -23 3 -49 23 -30 92 -44 142 -31 53 14 80 51 80 107 0 58 -35 94
-110 116 -78 23 -100 41 -100 81 0 50 27 77 82 83 41 5 50 2 73 -21 40 -40 61
-33 30 11 -13 18 -75 46 -95 42 -3 -1 -20 -5 -39 -9z"/>
<path d="M3795 1073 c-52 -9 -67 -15 -85 -33 -18 -18 -20 -34 -20 -169 0 -82
3 -157 6 -166 11 -27 60 -45 124 -45 55 0 65 3 91 29 l29 29 0 146 c0 136 -1
146 -23 171 -22 27 -80 44 -122 38z m72 -34 c15 -5 31 -16 35 -22 4 -7 8 -75
8 -153 0 -168 -6 -178 -93 -178 -97 0 -97 1 -97 179 l0 154 28 15 c32 18 80
20 119 5z"/>
<path d="M2190 1060 c0 -5 25 -10 55 -10 l55 0 0 -195 c0 -165 2 -195 15 -195
12 0 15 31 17 193 l3 192 53 3 c28 2 52 7 52 13 0 5 -53 9 -125 9 -77 0 -125
-4 -125 -10z"/>
<path d="M2610 896 c0 -96 3 -182 6 -191 11 -27 60 -45 124 -45 55 0 65 3 91
29 l29 29 0 176 c0 150 -2 176 -15 176 -13 0 -15 -26 -15 -174 0 -206 0 -206
-91 -206 -102 0 -99 -7 -99 200 0 153 -2 180 -15 180 -13 0 -15 -26 -15 -174z"/>
<path d="M3040 866 l0 -206 80 0 c88 0 142 16 159 48 6 12 11 80 11 161 0 133
-1 141 -24 168 -23 27 -29 28 -125 31 l-101 4 0 -206z m200 154 c18 -18 20
-33 20 -153 0 -170 0 -171 -109 -175 l-81 -4 0 176 0 176 75 0 c62 0 79 -4 95
-20z"/>
<path d="M3470 865 c0 -176 2 -205 15 -205 13 0 15 29 15 205 0 176 -2 205
-15 205 -13 0 -15 -29 -15 -205z"/>
</g>
</svg>
